ffmpeg started on 2016-12-12 at 11:00:29
Report written to "Output/theora/results/ffmpeg/Tsintel14000k.log"
Command line:
Tools/ffmpeg/ffmpeg -i Output/theora/encoded/sintel14000k.mkv -c:v rawvideo -pix_fmt yuv420p Output/theora/transcoded/sintel14000k.yuv
ffmpeg version N-82227-gdb23fde Copyright (c) 2000-2016 the FFmpeg developers
  built with gcc 5.4.0 (Ubuntu 5.4.0-6ubuntu1~16.04.2) 20160609
  configuration: --prefix=/home/jaroslav/ffmpeg_build --pkg-config-flags=--static --extra-cflags=-I/home/jaroslav/ffmpeg_build/include --extra-ldflags=-L/home/jaroslav/ffmpeg_build/lib --bindir=/home/jaroslav/bin --enable-gpl --enable-libass --enable-libfdk-aac --enable-libfreetype --enable-libmp3lame --enable-libopus --enable-libtheora --enable-libvorbis --enable-libvpx --enable-libx264 --enable-libx265 --enable-nvenc --enable-libmfx --enable-libxvid --enable-libgsm --enable-libopencore-amrnb --enable-version3 --enable-nonfree
  libavutil      55. 35.100 / 55. 35.100
  libavcodec     57. 66.101 / 57. 66.101
  libavformat    57. 57.100 / 57. 57.100
  libavdevice    57.  2.100 / 57.  2.100
  libavfilter     6. 66.100 /  6. 66.100
  libswscale      4.  3.100 /  4.  3.100
  libswresample   2.  4.100 /  2.  4.100
  libpostproc    54.  2.100 / 54.  2.100
Input #0, matroska,webm, from 'Output/theora/encoded/sintel14000k.mkv':
  Metadata:
    ENCODER         : Lavf57.57.100
  Duration: 00:00:20.83, start: 0.000000, bitrate: 14164 kb/s
    Stream #0:0: Video: theora, yuv420p(progressive), 4096x1744 [SAR 1:1 DAR 256:109], 24 fps, 24 tbr, 1k tbn, 24 tbc (default)
    Metadata:
      ENCODER         : Lavc57.66.101 libtheora
      DURATION        : 00:00:20.834000000
Output #0, rawvideo, to 'Output/theora/transcoded/sintel14000k.yuv':
  Metadata:
    encoder         : Lavf57.57.100
    Stream #0:0: Video: rawvideo (I420 / 0x30323449), yuv420p, 4096x1744 [SAR 1:1 DAR 256:109], q=2-31, 200 kb/s, 24 fps, 24 tbn, 24 tbc (default)
    Metadata:
      DURATION        : 00:00:20.834000000
      encoder         : Lavc57.66.101 rawvideo
Stream mapping:
  Stream #0:0 -> #0:0 (theora (native) -> rawvideo (native))
Press [q] to stop, [?] for help
frame=   21 fps=0.0 q=-0.0 size=  219744kB time=00:00:00.87 bitrate=2057306.1kbits/s speed=1.68x    frame=   42 fps= 40 q=-0.0 size=  439488kB time=00:00:01.75 bitrate=2057306.1kbits/s speed=1.68x    frame=   63 fps= 40 q=-0.0 size=  659232kB time=00:00:02.62 bitrate=2057306.1kbits/s speed=1.68x    frame=   84 fps= 40 q=-0.0 size=  878976kB time=00:00:03.50 bitrate=2057306.1kbits/s speed=1.69x    frame=  105 fps= 40 q=-0.0 size= 1098720kB time=00:00:04.37 bitrate=2057306.1kbits/s speed=1.69x    frame=  126 fps= 40 q=-0.0 size= 1318464kB time=00:00:05.25 bitrate=2057306.1kbits/s speed=1.69x    frame=  147 fps= 40 q=-0.0 size= 1538208kB time=00:00:06.12 bitrate=2057306.1kbits/s speed=1.69x    frame=  168 fps= 40 q=-0.0 size= 1757952kB time=00:00:07.00 bitrate=2057306.1kbits/s speed=1.69x    frame=  189 fps= 40 q=-0.0 size= 1977696kB time=00:00:07.87 bitrate=2057306.1kbits/s speed=1.69x    frame=  208 fps= 40 q=-0.0 size= 2176512kB time=00:00:08.66 bitrate=2057306.0kbits/s speed=1.67x    frame=  229 fps= 40 q=-0.0 size= 2396256kB time=00:00:09.54 bitrate=2057306.0kbits/s speed=1.67x    frame=  250 fps= 40 q=-0.0 size= 2616000kB time=00:00:10.41 bitrate=2057306.0kbits/s speed=1.67x    frame=  271 fps= 40 q=-0.0 size= 2835744kB time=00:00:11.29 bitrate=2057306.1kbits/s speed=1.67x    frame=  292 fps= 40 q=-0.0 size= 3055488kB time=00:00:12.16 bitrate=2057306.1kbits/s speed=1.67x    frame=  313 fps= 40 q=-0.0 size= 3275232kB time=00:00:13.04 bitrate=2057306.1kbits/s speed=1.67x    frame=  332 fps= 40 q=-0.0 size= 3474048kB time=00:00:13.83 bitrate=2057306.2kbits/s speed=1.66x    frame=  351 fps= 40 q=-0.0 size= 3672864kB time=00:00:14.62 bitrate=2057306.1kbits/s speed=1.65x    frame=  371 fps= 40 q=-0.0 size= 3882144kB time=00:00:15.45 bitrate=2057306.2kbits/s speed=1.65x    frame=  390 fps= 39 q=-0.0 size= 4080960kB time=00:00:16.25 bitrate=2057306.1kbits/s speed=1.64x    frame=  410 fps= 39 q=-0.0 size= 4290240kB time=00:00:17.08 bitrate=2057306.2kbits/s speed=1.65x    frame=  431 fps= 40 q=-0.0 size= 4509984kB time=00:00:17.95 bitrate=2057306.2kbits/s speed=1.65x    frame=  452 fps= 40 q=-0.0 size= 4729728kB time=00:00:18.83 bitrate=2057306.1kbits/s speed=1.65x    frame=  473 fps= 40 q=-0.0 size= 4949472kB time=00:00:19.70 bitrate=2057306.1kbits/s speed=1.65x    frame=  494 fps= 40 q=-0.0 size= 5169216kB time=00:00:20.58 bitrate=2057306.1kbits/s speed=1.65x    frame=  500 fps= 40 q=-0.0 Lsize= 5232000kB time=00:00:20.83 bitrate=2057306.1kbits/s speed=1.65x    
video:5232000kB audio:0kB subtitle:0kB other streams:0kB global headers:0kB muxing overhead: 0.000000%
